<?xml version="1.0" encoding="utf-8"?>
<!-- Generator: Adobe Illustrator 16.0.4, SVG Export Plug-In . SVG Version: 6.00 Build 0)  -->
<!DOCTYPE svg PUBLIC "-//W3C//DTD SVG 1.1//EN" "http://www.w3.org/Graphics/SVG/1.1/DTD/svg11.dtd">
<svg version="1.1" id="Layer_1" xmlns="http://www.w3.org/2000/svg" xmlns:xlink="http://www.w3.org/1999/xlink" x="0px" y="0px"
	 width="400px" height="400px" viewBox="0 0 400 400" enable-background="new 0 0 400 400" xml:space="preserve">
<polygon fill="#CA1DD8" points="71.828,200 324.908,200 365,366 38,366 "/>
<rect x="111" y="131" fill="#CA1DD8" width="173" height="105"/>
<rect x="70" y="184" fill="#CA1DD8" width="21" height="25"/>
<rect x="111" y="118" fill="#CA1DD8" width="21" height="25"/>
<rect x="263" y="118" fill="#CA1DD8" width="21" height="25"/>
<rect x="139" y="118" fill="#CA1DD8" width="21" height="25"/>
<rect x="236" y="118" fill="#CA1DD8" width="21" height="25"/>
<rect x="306" y="184" fill="#CA1DD8" width="21" height="25"/>
<rect x="168" y="82" fill="#CA1DD8" width="62" height="74"/>
<rect x="339" y="283" fill="#CA1DD8" width="26" height="83"/>
<rect x="38" y="283" fill="#CA1DD8" width="26" height="83"/>
<path fill="#FFFFFF" d="M172,370v-62.467c0,0-1.629-33.533,27.415-33.533C228.455,274,228,306.463,228,306.463L228.001,370H172z"/>
<rect x="196" y="43" fill="#CA1DD8" width="3" height="55"/>
<rect x="193" y="74" fill="#CA1DD8" width="13" height="24"/>
<rect x="217" y="74" fill="#CA1DD8" width="13" height="24"/>
<rect x="168" y="74" fill="#CA1DD8" width="13" height="24"/>
<rect x="38" y="274" fill="#CA1DD8" width="13" height="24"/>
<rect x="352" y="274" fill="#CA1DD8" width="13" height="24"/>
<polygon fill="#CA1DD8" points="80.667,156 67,187 94,187 "/>
<polygon fill="#CA1DD8" points="316.667,155.999 303,187 330,187 "/>
<g>
	<g>
		<path fill="#CA1DD8" d="M188.22,23.4c1.538,8.398,4.801,16.196,8.817,23.692c0.914,1.705,3.504,0.19,2.591-1.515
			c-3.901-7.278-7.023-14.826-8.516-22.975C190.765,20.701,187.874,21.509,188.22,23.4L188.22,23.4z"/>
	</g>
</g>
<g>
	<g>
		<path fill="#CA1DD8" d="M194.371,46.425c6.801,10.224,20.599,12.105,31.927,12.079c6.696-0.015,13.438-0.985,19.916-2.655
			c3.825-0.986,10.183-2.294,12.081-6.091c0.646-1.292-0.695-2.869-2.052-2.052c-11.146,6.71-24.046,5.755-36.155,2.464
			c-5.211-1.417-10.916-3.15-15.424-6.165c-3.038-2.032-5.549-2.301-8.058,0.603c-1.258,1.456,0.854,3.587,2.121,2.121
			c2.274-2.632,5.681,0.78,7.624,1.782c1.767,0.912,3.83,1.501,5.692,2.197c5.303,1.982,10.781,3.436,16.365,4.356
			c10.114,1.667,20.474,0.576,29.349-4.767c-0.684-0.684-1.368-1.368-2.052-2.052c-1.571,3.141-8.16,4.163-11.333,4.981
			c-5.509,1.42-11.198,2.069-16.874,2.257c-10.371,0.345-24.243-1.11-30.536-10.572C195.896,43.308,193.296,44.809,194.371,46.425
			L194.371,46.425z"/>
	</g>
</g>
<g>
	<path fill="#CA1DD8" d="M195,43.001c0,0.667-1.333,1.333,1.333,2c-3.333-6-4.667-14.667-7.333-20l2-2.667
		c7.333-7.333,14.833-4,21.5,0.667c16.667,11.333,28.5,7.333,47.5,0.667v-2c-10,19.333-24.833,20-43.5,19.333
		c-7.333,0-14.084-0.667-18.75,6"/>
	<g>
		<path fill="#CA1DD8" d="M193.554,42.602c-0.669,2.282,0.177,3.087,2.38,3.845c1.325,0.456,2.257-1.115,1.694-2.203
			c-2.123-4.104-3.346-8.524-4.683-12.925c-0.57-1.874-1.212-3.71-1.947-5.525c-0.342-0.844-0.319-0.548,0.593-1.764
			c7.607-10.142,18.153-0.277,25.86,3.734c14.062,7.317,28.716,2.303,42.613-2.65c0.636-0.227,1.102-0.741,1.102-1.446
			c0-0.667,0-1.333,0-2c0-1.435-2.108-2.126-2.795-0.757c-6.073,12.096-15.73,17.675-29.013,18.588
			c-10.814,0.744-25.104-3.426-32.752,6.441c-1.17,1.509,0.937,3.648,2.121,2.121c5.068-6.538,12.857-5.695,20.314-5.475
			c5.594,0.166,11.17,0.056,16.71-0.792c11.642-1.782,20.021-9.032,25.21-19.371c-0.932-0.252-1.863-0.504-2.795-0.757
			c0,0.667,0,1.333,0,2c0.367-0.482,0.734-0.964,1.102-1.446c-14.788,5.271-28.591,9.658-43.196,1.379
			c-5.561-3.152-10.108-7.204-16.857-7.008c-5.091,0.148-8.688,3.891-11.51,7.652c-0.333,0.444-0.21,1.06,0,1.514
			c2.999,6.471,4.041,13.633,7.333,20c0.565-0.734,1.129-1.469,1.694-2.203c-0.473-0.163-0.692,1.232-0.286-0.155
			C196.992,41.539,194.097,40.75,193.554,42.602L193.554,42.602z"/>
	</g>
</g>
<polyline fill="none" stroke="#FFFFFF" stroke-miterlimit="10" points="57,241.5 67.5,241.5 67.5,228.5 82.5,228.5 82.5,242.5 
	108.5,242.5 108.5,229.5 123.5,229.5 123.5,242 152.5,242.5 152.5,229.5 165.5,229.5 165.5,242 193.5,241.668 193.5,229.5 
	205.5,229.5 205.5,242 235.5,242.5 235.5,229.5 247.5,229.5 247.5,242 277.5,241.668 277.5,229.5 288.5,229.5 288.5,242 
	314.5,241.668 314.5,229.5 324.5,229.5 324.5,242 340,241.668 "/>
</svg>
