<?xml version="1.0" encoding="utf-8"?>
<!-- Generator: Adobe Illustrator 16.0.4, SVG Export Plug-In . SVG Version: 6.00 Build 0)  -->
<!DOCTYPE svg PUBLIC "-//W3C//DTD SVG 1.1//EN" "http://www.w3.org/Graphics/SVG/1.1/DTD/svg11.dtd">
<svg version="1.1" id="Layer_1" xmlns="http://www.w3.org/2000/svg" xmlns:xlink="http://www.w3.org/1999/xlink" x="0px" y="0px"
	 width="400px" height="400px" viewBox="0 0 400 400" enable-background="new 0 0 400 400" xml:space="preserve">
<g>
	<path fill="#F2C4E9" d="M90,319c-4,46-59,3-28-18l-1,3c-26,17-50-18-23-35h1c-24,21-40-35-8-44v-1c-33,5-31-26-6-34l2-1
		c-27-7-20-37,4-33l5-3c-28-12-9-55,13-42l5-4c-21-22,2-62,30-36v2c0-7-2-23,3-28c8-9,28-5,34,5l-4,1c1-26,24-38,38-12l-6,2
		c3-11,9-21,19-26c17-8,22,3,32,15h-3c3-27,37-22,39,4l-5-3c5-7,19-22,29-17c8,4,11,30,4,36l-2-4c6-6,17-17,27-15c12,3,17,25,7,34
		l-1-2c21-18,48,3,29,25l-3-1c28-20,45,18,22,31l-2,2c32-26,43,34,12,32l8,4c24-22,47,45,9,36l-2,5c40,6,31,47-7,32h-2
		c10,1,25,16,18,27c-5,7-19,3-25,3v1c38,13,4,67-25,32l8,5c14,3,25,26,11,34c-10,7-29-1-36-9l-5,1c17,1,30,26,14,36
		c-11,6-35-3-40-15v1c18,5,12,38-5,41c-14,2-39-8-39-25l4-3c17,43-44,42-39,9l-2-6c13,16-1,42-21,34c-13-5-24-17-20-31l2-10
		c-1,17-8,43-30,27c-13-10-7-20-6-32l3-10c-2,53-59,15-38-8"/>
</g>
<circle fill="#D81A1A" stroke="#FFFFFF" stroke-miterlimit="10" cx="200" cy="200" r="175"/>
<path fill="#FFFFFF" d="M93,114v169h107l-45-73.024c0,0,45-10.433,45-46.945S184,114,154,114S93,114,93,114z"/>
<path fill="#FFFFFF" d="M217,114v169h52.363c0,0,55.637-3.13,55.637-40.686c0-37.555-28.363-43.814-54-43.814
	c0,0,48.546-10.432,48.546-46.944C319.546,115.043,275.909,114,271,114S217,114,217,114z"/>
</svg>
