<?xml version="1.0" encoding="utf-8"?>
<!-- Generator: Adobe Illustrator 16.0.4, SVG Export Plug-In . SVG Version: 6.00 Build 0)  -->
<!DOCTYPE svg PUBLIC "-//W3C//DTD SVG 1.1//EN" "http://www.w3.org/Graphics/SVG/1.1/DTD/svg11.dtd">
<svg version="1.1" id="Layer_1" xmlns="http://www.w3.org/2000/svg" xmlns:xlink="http://www.w3.org/1999/xlink" x="0px" y="0px"
	 width="373.316px" height="362.295px" viewBox="0 0 373.316 362.295" enable-background="new 0 0 373.316 362.295"
	 xml:space="preserve">
<polygon points="59.175,192 310.062,192 349.806,358 25.64,358 "/>
<rect x="98.64" y="123" width="173" height="105"/>
<rect x="57.64" y="176" width="21" height="25"/>
<rect x="98.64" y="110" width="21" height="25"/>
<rect x="250.64" y="110" width="21" height="25"/>
<rect x="126.64" y="110" width="21" height="25"/>
<rect x="223.64" y="110" width="21" height="25"/>
<rect x="290.64" y="176" width="21" height="25"/>
<rect x="155.64" y="74" width="62" height="74"/>
<rect x="320.64" y="275" width="26" height="83"/>
<rect x="25.64" y="275" width="26" height="83"/>
<path fill="#FFFFFF" d="M159.64,362v-62.467c0,0-1.629-33.533,27.415-33.533c29.041,0,28.585,32.463,28.585,32.463L215.641,362
	H159.64z"/>
<rect x="183.64" y="35" width="3" height="55"/>
<rect x="180.64" y="66" width="13" height="24"/>
<rect x="204.64" y="66" width="13" height="24"/>
<rect x="155.64" y="66" width="13" height="24"/>
<rect x="25.64" y="266" width="13" height="24"/>
<rect x="333.64" y="266" width="13" height="24"/>
<polygon points="68.307,148 54.64,179 81.64,179 "/>
<polygon points="301.306,147.999 287.64,179 314.64,179 "/>
<g>
	<g>
		<path fill="#CA1DD8" d="M175.86,15.4c1.538,8.398,4.801,16.196,8.817,23.692c0.914,1.705,3.504,0.19,2.591-1.515
			c-3.901-7.278-7.023-14.826-8.516-22.975C178.405,12.701,175.514,13.509,175.86,15.4L175.86,15.4z"/>
	</g>
</g>
<g>
	<path fill="#FFFFFF" d="M183.307,37.667c10,16,46.667,12.667,60.667,4.667l0.667-1.333c-14.667,9.333-34,4.667-48.667-1.333
		c-4.667-1.333-7.333-6.667-10.667-2"/>
	<g>
		<path d="M182.011,38.425c6.801,10.224,20.599,12.105,31.927,12.079c6.696-0.015,13.438-0.985,19.916-2.655
			c3.825-0.986,10.183-2.294,12.081-6.091c0.646-1.292-0.695-2.869-2.053-2.052c-11.146,6.71-24.045,5.755-36.154,2.464
			c-5.211-1.417-10.916-3.15-15.424-6.165c-3.038-2.032-5.549-2.301-8.058,0.603c-1.258,1.456,0.854,3.587,2.121,2.121
			c2.274-2.632,5.681,0.78,7.625,1.782c1.766,0.912,3.829,1.501,5.691,2.197c5.303,1.982,10.781,3.436,16.365,4.356
			c10.113,1.667,20.474,0.576,29.349-4.767c-0.685-0.684-1.368-1.368-2.052-2.052c-1.571,3.141-8.16,4.163-11.333,4.981
			c-5.509,1.42-11.198,2.069-16.874,2.257c-10.371,0.345-24.243-1.11-30.536-10.572C183.536,35.308,180.937,36.809,182.011,38.425
			L182.011,38.425z"/>
	</g>
</g>
<g>
	<path d="M182.64,35.001c0,0.667-1.333,1.333,1.333,2c-3.333-6-4.667-14.667-7.333-20l2-2.667c7.333-7.333,14.833-4,21.5,0.667
		c16.667,11.333,28.5,7.333,47.5,0.667v-2c-10,19.333-24.833,20-43.5,19.333c-7.333,0-14.084-0.667-18.75,6"/>
	<g>
		<path d="M181.194,34.602c-0.669,2.282,0.177,3.087,2.38,3.845c1.325,0.456,2.257-1.115,1.694-2.203
			c-2.123-4.104-3.346-8.524-4.683-12.925c-0.57-1.874-1.212-3.71-1.947-5.525c-0.342-0.844-0.319-0.548,0.593-1.764
			c7.607-10.142,18.153-0.277,25.86,3.734c14.062,7.317,28.716,2.303,42.613-2.65c0.635-0.227,1.102-0.741,1.102-1.446
			c0-0.667,0-1.333,0-2c0-1.435-2.107-2.126-2.795-0.757c-6.073,12.096-15.73,17.675-29.014,18.588
			c-10.813,0.744-25.104-3.426-32.751,6.441c-1.17,1.509,0.937,3.648,2.121,2.121c5.068-6.538,12.857-5.695,20.314-5.475
			c5.594,0.166,11.17,0.056,16.71-0.792c11.642-1.782,20.021-9.032,25.21-19.371c-0.932-0.252-1.863-0.504-2.795-0.757
			c0,0.667,0,1.333,0,2c0.367-0.482,0.734-0.964,1.102-1.446c-14.787,5.271-28.591,9.658-43.195,1.379
			c-5.562-3.152-10.108-7.204-16.857-7.008c-5.091,0.148-8.688,3.891-11.51,7.652c-0.333,0.444-0.21,1.06,0,1.514
			c2.999,6.471,4.041,13.633,7.333,20c0.565-0.734,1.129-1.469,1.694-2.203c-0.473-0.163-0.692,1.232-0.286-0.155
			C184.632,33.539,181.737,32.75,181.194,34.602L181.194,34.602z"/>
	</g>
</g>
<polyline fill="none" stroke="#FFFFFF" stroke-width="6" stroke-miterlimit="10" points="44.64,233.5 55.14,233.5 55.14,220.5 
	70.14,220.5 70.14,234.5 96.14,234.5 96.14,221.5 111.14,221.5 111.14,234 140.14,234.5 140.14,221.5 153.14,221.5 153.14,234 
	181.14,233.668 181.14,221.5 193.14,221.5 193.14,234 223.14,234.5 223.14,221.5 235.14,221.5 235.14,234 265.14,233.668 
	265.14,221.5 276.14,221.5 276.14,234 302.14,233.668 302.14,221.5 312.14,221.5 312.14,234 327.64,233.668 "/>
<rect x="346.64" y="317" fill="#FFFFFF" width="11" height="45"/>
<rect x="322.64" y="201" fill="#FFFFFF" width="11" height="77"/>
<rect x="38.64" y="201" fill="#FFFFFF" width="11" height="77"/>
<rect x="49.64" y="221" width="20" height="19"/>
<rect x="302.64" y="222" width="20" height="22"/>
<rect x="3.131" y="266.508" transform="matrix(-0.9978 0.0667 -0.0667 -0.9978 54.168 626.2112)" fill="#FFFFFF" width="27.002" height="95.003"/>
<rect x="342.086" y="266.443" transform="matrix(-0.9989 -0.0461 0.0461 -0.9989 698.3479 643.9992)" fill="#FFFFFF" width="29.041" height="94.996"/>
</svg>
