<?xml version="1.0" encoding="utf-8"?>
<!-- Generator: Adobe Illustrator 16.0.4, SVG Export Plug-In . SVG Version: 6.00 Build 0)  -->
<!DOCTYPE svg PUBLIC "-//W3C//DTD SVG 1.1//EN" "http://www.w3.org/Graphics/SVG/1.1/DTD/svg11.dtd">
<svg version="1.1" id="Layer_1" xmlns="http://www.w3.org/2000/svg" xmlns:xlink="http://www.w3.org/1999/xlink" x="0px" y="0px"
	 width="400px" height="400px" viewBox="0 0 400 400" enable-background="new 0 0 400 400" xml:space="preserve">
<path stroke="#FFFFFF" stroke-miterlimit="10" d="M199,0C89.095,0,0,89.095,0,199c0,109.904,89.095,199,199,199
	c109.904,0,199-89.096,199-199C398,89.095,308.904,0,199,0z M199,293.5H76.5v-192c0,0,36.077,0,70.191,0
	c34.114,0,52.309,14.088,52.309,55.607c0,41.521-51.171,53.37-51.171,53.37L199,293.5z M277.876,293.5H217.5v-192
	c0,0,56.654,0,62.236,0c5.583,0,55.205,1.038,55.205,42.559s-55.205,53.31-55.205,53.31c29.152,0,61.406,7.14,61.406,49.846
	S277.876,293.5,277.876,293.5z"/>
</svg>
